<svg xmlns="http://www.w3.org/2000/svg" version="1.1" xmlns:xlink="http://www.w3.org/1999/xlink" xmlns:svgjs="http://svgjs.com/svgjs" width="1000" height="1000"><g transform="matrix(0.966183574879227,0,0,0.966183574879227,-0.0026631286178826485,86.47337196644958)"><svg xmlns="http://www.w3.org/2000/svg" version="1.1" xmlns:xlink="http://www.w3.org/1999/xlink" xmlns:svgjs="http://svgjs.com/svgjs" width="1035" height="856"><svg viewBox="0 0 1035 856" version="1.1" xmlns="http://www.w3.org/2000/svg" xmlns:xlink="http://www.w3.org/1999/xlink" xml:space="preserve" style="fill-rule:evenodd;clip-rule:evenodd;stroke-linejoin:round;stroke-miterlimit:2;">
    <g transform="matrix(4.16667,0,0,4.16667,0,0)">
        <g transform="matrix(1,0,0,1,1,-4.6058)">
            <path d="M218.703,201.277C206.152,194.824 192.984,189.247 179.407,184.484C179.571,184.319 179.733,184.154 179.895,183.987C142.528,171.361 95.251,163.261 43.377,161.802C41.436,161.779 39.5,161.767 37.569,161.767C27.708,161.767 17.848,162.075 8.007,162.681L5.991,162.805L5.461,160.856C2.62,150.402 1.192,139.619 1.192,128.786C1.192,61.414 55.809,6.797 123.181,6.797C190.553,6.797 245.17,61.414 245.17,128.786C245.17,154.649 237.07,179.626 221.841,200.532L220.591,202.249L218.703,201.277Z" style="fill:white;"></path>
        </g>
        <g transform="matrix(1,0,0,1,1,-4.2764)">
            <path d="M218.159,202.003C211.986,198.831 205.659,195.867 199.207,193.11C192.591,190.283 185.85,187.673 179.016,185.275L177.248,184.656L177.715,184.181C159.25,178.065 138.406,173.046 115.821,169.375C93.194,165.7 68.824,163.376 43.345,162.66C42.375,162.648 41.414,162.638 40.465,162.633L37.569,162.629C32.583,162.629 27.676,162.705 22.852,162.854C17.963,163.004 13.034,163.234 8.076,163.539L6.06,163.663L5.096,163.722L4.841,162.787L4.312,160.838C2.884,155.584 1.807,150.227 1.086,144.807C0.363,139.377 0,133.913 0,128.456C0,94.442 13.788,63.647 36.079,41.356C58.37,19.064 89.167,5.276 123.181,5.276C157.195,5.276 187.992,19.064 210.283,41.356C232.574,63.647 246.362,94.442 246.362,128.456C246.362,141.517 244.313,154.36 240.34,166.579C236.375,178.773 230.487,190.347 222.8,200.9L221.55,202.617L220.95,203.44L220.046,202.975L218.159,202.003ZM200.138,190.923C206.639,193.702 213.019,196.69 219.248,199.892L220.232,200.398L220.882,199.505C228.413,189.165 234.187,177.814 238.078,165.843C241.971,153.87 243.979,141.274 243.979,128.456C243.979,95.1 230.458,64.9 208.598,43.04C186.738,21.18 156.538,7.659 123.181,7.659C89.824,7.659 59.623,21.18 37.764,43.04C15.904,64.9 2.383,95.1 2.383,128.456C2.383,133.845 2.736,139.207 3.441,144.5C4.143,149.778 5.201,155.029 6.611,160.215L6.887,161.229L7.937,161.165C12.845,160.863 17.797,160.633 22.788,160.48C27.794,160.325 32.723,160.247 37.569,160.247L40.473,160.26C41.452,160.265 42.427,160.275 43.391,160.286L43.409,160.286C69.002,161.005 93.48,163.338 116.202,167.03C139.648,170.84 161.238,176.101 180.271,182.532L182.068,183.14L181.56,183.657C187.857,185.905 194.056,188.326 200.138,190.923" style="fill:rgb(92,5,12);fill-rule:nonzero;"></path>
        </g>
        <g transform="matrix(-1,0,0,1,247.202,43.726)">
            <path d="M123.101,1.12C79.339,1.12 43.864,36.596 43.864,80.357C43.864,124.118 79.339,159.594 123.101,159.594C166.862,159.594 202.338,124.118 202.338,80.357C202.338,36.596 166.862,1.12 123.101,1.12" style="fill:white;"></path>
        </g>
        <g transform="matrix(1,0,0,1,1,43.7774)">
            <path d="M123.25,0C145.432,0 165.516,8.992 180.053,23.528C194.59,38.066 203.581,58.148 203.581,80.331C203.581,102.513 194.59,122.597 180.053,137.134C165.516,151.671 145.432,160.662 123.25,160.662C101.068,160.662 80.985,151.671 66.448,137.134C51.911,122.597 42.919,102.513 42.919,80.331C42.919,58.148 51.911,38.066 66.448,23.528C80.985,8.992 101.068,0 123.25,0ZM178.378,25.203C164.27,11.095 144.779,2.369 123.25,2.369C101.722,2.369 82.231,11.095 68.122,25.203C54.015,39.311 45.288,58.802 45.288,80.331C45.288,101.86 54.015,121.351 68.122,135.459C82.231,149.567 101.722,158.293 123.25,158.293C144.779,158.293 164.27,149.567 178.378,135.459C192.486,121.351 201.213,101.86 201.213,80.331C201.213,58.802 192.486,39.311 178.378,25.203" style="fill:rgb(92,5,12);fill-rule:nonzero;"></path>
        </g>
        <g transform="matrix(1,0,0,1,1,40.8472)">
            <path d="M83.205,76.568C85.361,76.784 86.382,78.135 87.427,79.462C86.112,79.836 85.495,80.907 84.774,81.874C86.57,81.006 89.128,81.217 90.201,82.598C90.039,78.7 86.797,75.442 83.205,76.568ZM137.75,127.844C140.291,120.415 140.727,108.736 137.114,100.567C139.046,117.712 134.695,132.944 129.521,139.824C126.391,115.343 92.272,113.07 89.452,136.114C84.118,124.497 83.031,120.451 82.603,98.397C85.845,105.003 90.555,110.142 98.643,111.904C89.708,108.071 84.078,99.728 83.688,88.145C84.721,88.238 85.469,88.615 86.462,88.748C81.602,86.66 76.513,78.657 81.155,72.95C86.271,68.454 93.39,75.573 93.095,80.91C99.562,87.585 117.268,88.972 127.587,84.768C124.205,91.983 124.903,104.402 128.913,110.819C125.011,110.354 121.588,112.412 122.401,116.246C117.313,116.494 113.11,114.864 109.496,113.592C113.136,116.939 121.751,119.409 128.31,119.502C131.257,119.543 134.646,117.872 134.34,114.678C134.175,112.948 132.818,112.497 131.687,111.18C130.129,109.368 127.772,103.274 128.31,99.965C128.31,99.965 134.093,95.589 128.672,91.402C129.356,86.844 130.98,83.227 134.134,81.139C136.401,78.719 137.915,75.781 138.336,72.32C137.361,73.986 133.827,77.029 131.022,77.772C131.953,67.035 128.854,57.581 123.308,52.904C124.27,57.673 122.833,63.391 120.782,65.937C122.507,58.2 120.506,50.421 117.59,45.058C127.153,49.801 134.406,57.454 134.08,71.655C136.435,69.134 138.36,65.03 139.666,61.016C143.399,67.505 140.657,77.674 136.959,82.593C147.216,92.557 147.747,118.127 137.75,127.844ZM175.947,58.357C180.198,60.458 184.623,62.385 188.369,64.99C180.429,49.734 167.535,39.434 150.38,33.393C155.108,31.728 162.393,32.411 167.023,33.634C155.946,24.062 131.463,18.153 113.597,25.795C116.708,21.87 120.695,18.823 125.416,16.509C104.662,17.986 90.779,26.976 80.914,38.94C82.139,34.015 83.393,29.118 85.376,24.951C72.938,35.603 60.174,54.088 64.995,78.498C61.557,74.016 59.665,67.989 57.397,62.337C56.121,89.14 65.913,105.037 80.366,117.276C82.593,128.6 84.051,134.607 92.875,146.815C90.367,140.736 90.092,130.509 103.594,124.361C115.819,118.795 129.85,136.111 125.263,147.084C132.645,140.955 134.437,138.193 137.584,130.764C142.609,130.383 145.192,130.29 150.863,129.15C159.064,127.5 166.408,123.222 170.882,118.295C169.739,123.664 167.173,126.912 164.243,130.429C176.638,122.892 188.831,112.627 185.837,91.402C188.374,94.974 190.557,98.902 192.591,102.98C193.408,82.295 186.358,67.811 175.947,58.357ZM116.009,97.311C116.672,93.914 109.888,89.894 107.446,93.572C104.695,98.883 114.616,102.843 116.009,97.311" style="fill:rgb(92,5,12);fill-rule:nonzero;"></path>
        </g>
        <g transform="matrix(1,0,0,1,1,169.137)">
            <path d="M47.153,3.323C32.737,3.567 18.601,4.452 4.82,5.914C6.533,10.187 8.486,14.336 10.662,18.346C30.467,15.384 59.69,13.493 72.411,13.278C84.058,13.081 83.581,13.172 86.582,13.217C84.762,10.237 83.167,7.16 81.89,3.85C71.008,3.323 58.016,3.139 47.153,3.323ZM94.487,13.409C104.432,13.695 114.229,14.289 123.85,15.173C124.074,12.8 123.485,10.314 122.48,8.052C114.489,6.88 104.367,5.415 96.065,4.651C94.577,6.781 93.713,9.306 93.798,12.276C93.834,12.335 93.87,12.395 93.906,12.454L94.487,13.409ZM131.79,15.975C158.951,19.095 186.8,24.784 210.138,32.163L210.609,31.489C188.921,22.616 162.497,15.081 136.331,10.216C136.07,10.652 135.798,11.081 135.514,11.503C134.421,13.122 133.154,14.595 131.79,15.975" style="fill:rgb(92,5,12);"></path>
        </g>
        <g transform="matrix(1,0,0,1,1,-42.9078)">
            <path d="M184.918,93.135C184.542,93.348 184.182,93.588 183.836,93.845C183.508,94.088 183.171,94.334 182.884,94.624C182.437,95.075 182.119,95.616 181.901,96.21C181.71,96.731 181.604,97.273 181.624,97.828C181.643,98.345 181.75,98.848 181.963,99.319C182.171,99.782 182.46,100.189 182.827,100.54C183.134,100.832 183.489,101.067 183.867,101.256C184.272,101.459 184.713,101.565 185.164,101.595C185.674,101.63 186.178,101.508 186.645,101.31C187.27,101.047 187.834,100.573 188.295,100.084L196.746,91.115C197.19,90.644 197.658,90.126 198.021,89.588C198.203,89.318 198.422,88.951 198.478,88.626C198.516,88.411 198.5,88.2 198.408,88.001C198.28,87.726 198.091,87.468 197.889,87.243L197.593,86.912L198.418,86.037L205.117,92.35L204.315,93.201L203.975,92.971C203.683,92.774 203.328,92.589 202.97,92.572C202.671,92.558 202.377,92.607 202.106,92.737C201.82,92.873 201.55,93.041 201.311,93.25C201.087,93.445 200.872,93.652 200.668,93.868L192.147,102.911C191.47,103.63 190.678,104.244 189.768,104.636C188.973,104.978 188.131,105.176 187.264,105.181C186.439,105.186 185.632,105.071 184.847,104.816C184.089,104.57 183.362,104.241 182.686,103.82C182.053,103.427 181.454,102.979 180.911,102.468C180.178,101.777 179.567,100.98 179.069,100.106C178.559,99.211 178.175,98.254 177.927,97.255C177.672,96.233 177.569,95.182 177.609,94.13L177.623,93.776L184.789,91.804L185.305,92.915L184.918,93.135ZM22.448,170.329L23.048,179.605L33.081,178.956C33.722,178.915 34.442,178.83 35.05,178.618C35.395,178.497 35.775,178.305 35.995,178.002C36.209,177.708 36.285,177.353 36.289,176.994L36.295,176.547L37.567,176.465L38.161,185.651L36.878,185.733L36.824,185.278C36.781,184.908 36.669,184.543 36.415,184.261C36.172,183.99 35.853,183.827 35.505,183.733C35.03,183.605 34.525,183.581 34.036,183.613L18.314,184.63C17.827,184.662 17.287,184.764 16.868,185.027C16.569,185.214 16.301,185.454 16.137,185.77C15.989,186.054 15.889,186.355 15.865,186.676L15.834,187.095L14.658,187.171L14.064,177.985L15.259,177.908L15.329,178.343C15.383,178.682 15.494,179.069 15.735,179.325C15.942,179.543 16.183,179.7 16.471,179.786C16.787,179.879 17.106,179.931 17.435,179.936C17.742,179.94 18.047,179.929 18.353,179.909L20.473,179.772L19.873,170.496L18.506,170.584C17.839,170.627 17.101,170.694 16.453,170.868C16.134,170.954 15.716,171.095 15.459,171.312C15.289,171.454 15.156,171.624 15.091,171.837C15.009,172.111 14.971,172.395 14.962,172.68L14.948,173.119L13.753,173.196L13.153,163.908L14.35,163.83L14.418,164.267C14.471,164.606 14.583,164.947 14.807,165.214C14.994,165.44 15.224,165.609 15.497,165.717C15.8,165.836 16.117,165.906 16.442,165.929C16.777,165.954 17.113,165.956 17.449,165.934L32.177,164.981C32.761,164.943 33.359,164.862 33.919,164.688C34.328,164.56 34.715,164.358 35.005,164.036C35.282,163.729 35.37,163.316 35.378,162.913L35.388,162.469L36.656,162.387L37.257,171.676L35.983,171.758L35.922,171.312C35.873,170.962 35.774,170.559 35.55,170.276C35.369,170.049 35.152,169.896 34.876,169.805C34.534,169.692 34.176,169.643 33.817,169.638C33.371,169.632 32.925,169.651 32.481,169.68L22.448,170.329ZM15.21,145.903C15.518,144.327 16.044,142.796 16.829,141.393C17.501,140.192 18.339,139.095 19.376,138.186C20.328,137.352 21.393,136.676 22.568,136.202C23.706,135.743 24.889,135.462 26.111,135.357C27.318,135.253 28.538,135.308 29.729,135.532C31.028,135.777 32.263,136.231 33.411,136.886C34.526,137.523 35.516,138.316 36.372,139.273C37.233,140.236 37.923,141.32 38.448,142.5C38.995,143.727 39.338,145.019 39.493,146.353C39.659,147.789 39.623,149.234 39.331,150.653C39.041,152.064 38.514,153.397 37.781,154.635C37.129,155.735 36.334,156.731 35.367,157.572C34.458,158.362 33.449,159.012 32.344,159.495C31.268,159.966 30.138,160.287 28.974,160.448C27.816,160.608 26.647,160.653 25.487,160.478C24.184,160.283 22.949,159.836 21.773,159.249C20.629,158.678 19.579,157.952 18.648,157.075C17.72,156.201 16.943,155.2 16.333,154.079C15.708,152.931 15.297,151.691 15.089,150.4C14.864,148.997 14.909,147.577 15.159,146.18C15.169,146.126 15.179,146.071 15.189,146.016C15.196,145.979 15.203,145.941 15.21,145.903ZM27.026,124.087C27.29,124.194 27.545,124.19 27.82,124.098C28.227,123.961 28.61,123.705 28.941,123.435C29.408,123.054 29.847,122.633 30.265,122.198C30.757,121.686 31.242,121.168 31.731,120.653C32.252,120.104 32.776,119.561 33.298,119.014C33.789,118.499 34.288,117.992 34.802,117.5C35.226,117.095 35.676,116.683 36.158,116.347C36.857,115.858 37.631,115.511 38.459,115.31C39.254,115.118 40.063,115.074 40.874,115.176C41.691,115.278 42.471,115.526 43.202,115.906C44.124,116.385 44.937,117.027 45.586,117.841C46.204,118.616 46.661,119.483 46.963,120.427C47.265,121.372 47.417,122.348 47.434,123.34C47.45,124.336 47.348,125.327 47.121,126.297C46.899,127.25 46.569,128.172 46.12,129.042C45.753,129.754 45.321,130.433 44.834,131.069C44.341,131.712 43.789,132.307 43.192,132.855C43.045,132.99 42.908,133.135 42.774,133.282C42.653,133.415 42.55,133.564 42.468,133.724C42.359,133.934 42.269,134.17 42.248,134.408C42.234,134.568 42.255,134.721 42.333,134.862L42.873,135.835L32.754,133.309L33.115,132.049L33.563,132.154C34.19,132.3 34.836,132.357 35.479,132.361C36.209,132.366 36.937,132.282 37.651,132.13C38.41,131.968 39.143,131.714 39.842,131.377C40.56,131.032 41.217,130.58 41.807,130.044C42.43,129.477 42.95,128.824 43.332,128.071C43.586,127.567 43.763,127.016 43.925,126.477C44.095,125.911 44.207,125.331 44.268,124.744C44.326,124.189 44.312,123.627 44.217,123.077C44.127,122.562 43.941,122.082 43.654,121.645C43.347,121.177 42.943,120.816 42.453,120.548C42.067,120.336 41.644,120.173 41.208,120.108C40.867,120.057 40.532,120.085 40.204,120.192C39.81,120.32 39.433,120.531 39.095,120.769C38.607,121.113 38.139,121.494 37.685,121.882C37.068,122.409 36.479,122.968 35.924,123.561C35.36,124.165 34.796,124.77 34.24,125.382C33.702,125.973 33.138,126.539 32.545,127.075C31.995,127.573 31.387,128.02 30.727,128.364C29.998,128.744 29.216,128.97 28.394,129.02C27.543,129.071 26.712,128.871 25.941,128.519L25.899,128.5L25.862,128.473C25.67,128.336 25.476,128.201 25.283,128.065C25.088,127.928 24.879,127.813 24.684,127.671C24.012,127.178 23.583,126.472 23.286,125.706C22.991,124.947 22.858,124.15 22.854,123.338C22.85,122.473 22.973,121.619 23.195,120.784C23.429,119.907 23.758,119.06 24.178,118.256C24.46,117.718 24.789,117.208 25.152,116.721C25.502,116.252 25.866,115.792 26.242,115.343C26.589,114.928 26.929,114.507 27.257,114.076C27.331,113.876 27.389,113.657 27.397,113.445C27.402,113.282 27.377,113.126 27.297,112.982L26.728,111.955L34.98,114.354L34.711,115.493L34.287,115.447C33.419,115.353 32.534,115.372 31.682,115.577C30.917,115.762 30.184,116.054 29.516,116.475C28.881,116.875 28.297,117.351 27.796,117.912C27.324,118.441 26.914,119.024 26.591,119.656C26.388,120.054 26.222,120.468 26.11,120.9C26.004,121.306 25.959,121.722 25.977,122.142C25.993,122.524 26.09,122.891 26.264,123.232C26.44,123.579 26.715,123.859 27.026,124.087ZM46.629,108.214L51.454,112.025C51.939,112.408 52.547,112.817 53.144,112.995C53.477,113.094 53.883,113.169 54.222,113.058C54.5,112.967 54.729,112.81 54.907,112.578L55.205,112.188L56.239,113.005L50.535,120.229L49.568,119.465L49.759,119.108C49.891,118.862 50,118.607 50.087,118.342C50.153,118.139 50.153,117.933 50.106,117.726C50.04,117.427 49.811,117.103 49.622,116.869C49.235,116.391 48.706,115.942 48.224,115.561L36.695,106.457C36.28,106.129 35.815,105.814 35.323,105.612C34.981,105.471 34.615,105.397 34.246,105.465C33.873,105.534 33.552,105.781 33.299,106.052L32.995,106.378L32.051,105.632L40.413,95.043C40.85,94.489 41.337,93.967 41.885,93.521C42.384,93.114 42.935,92.783 43.542,92.566C44.128,92.356 44.734,92.298 45.348,92.396C46.013,92.503 46.616,92.813 47.142,93.225C47.254,93.312 47.358,93.408 47.459,93.508C47.553,93.603 47.65,93.695 47.743,93.792C48.313,94.385 48.666,95.16 48.887,95.944C49.169,96.944 49.209,98.044 49.156,99.077C49.084,100.476 48.785,101.903 48.417,103.252C47.956,104.939 47.321,106.605 46.629,108.214ZM46.18,87.833L53.491,82.183L54.238,83.15L53.882,83.449C53.603,83.682 53.312,83.996 53.214,84.356C53.127,84.673 53.169,84.986 53.285,85.29C53.452,85.726 53.731,86.142 54.015,86.51L61.362,96.015C61.987,96.824 62.786,97.614 63.735,98.031C64.509,98.37 65.313,98.475 66.142,98.298C67.07,98.099 67.918,97.619 68.666,97.046C69.025,96.771 69.362,96.462 69.676,96.135C70.044,95.751 70.364,95.322 70.635,94.865C70.924,94.381 71.112,93.851 71.217,93.298C71.332,92.691 71.273,92.068 71.118,91.474C70.916,90.7 70.479,89.972 69.993,89.343L63.15,80.49C62.797,80.033 62.404,79.556 61.977,79.166C61.751,78.959 61.456,78.716 61.171,78.595C61.021,78.532 60.838,78.476 60.673,78.495C60.517,78.513 60.373,78.558 60.234,78.633C60.05,78.734 59.871,78.844 59.693,78.955L59.322,79.185L58.591,78.24L64.679,73.534L65.395,74.46L65.113,74.761C64.926,74.96 64.761,75.177 64.62,75.411C64.508,75.598 64.459,75.806 64.451,76.022C64.44,76.318 64.557,76.653 64.675,76.919C64.897,77.42 65.248,77.919 65.582,78.35L71.69,86.253C72.458,87.247 73.121,88.328 73.594,89.494C74.036,90.584 74.255,91.729 74.209,92.905C74.161,94.133 73.77,95.282 73.153,96.339C72.411,97.61 71.306,98.687 70.156,99.59C69.695,99.952 69.213,100.291 68.724,100.615C68.151,100.996 67.546,101.33 66.921,101.619C66.25,101.93 65.55,102.164 64.824,102.309C64.062,102.462 63.289,102.476 62.52,102.362C61.67,102.236 60.875,101.898 60.148,101.447C59.265,100.9 58.509,100.135 57.876,99.316L50.572,89.866C50.357,89.588 50.133,89.319 49.895,89.062C49.664,88.813 49.404,88.597 49.114,88.422C48.858,88.268 48.582,88.197 48.285,88.195C47.932,88.192 47.58,88.356 47.289,88.543L46.916,88.784L46.18,87.833ZM52.205,79.294C51.887,78.845 51.674,78.343 51.576,77.803C51.496,77.358 51.505,76.909 51.646,76.476C51.777,76.077 52.008,75.737 52.34,75.48C52.673,75.223 53.051,75.076 53.468,75.03C53.914,74.981 54.351,75.072 54.755,75.262C55.232,75.486 55.626,75.845 55.942,76.262C56.279,76.706 56.557,77.215 56.674,77.764C56.769,78.211 56.765,78.676 56.607,79.109C56.459,79.512 56.226,79.859 55.885,80.122C55.546,80.385 55.146,80.525 54.721,80.568C54.266,80.614 53.831,80.515 53.42,80.321C52.928,80.09 52.518,79.737 52.205,79.294ZM77.578,91.24C77.903,91.014 78.229,90.72 78.415,90.365C78.575,90.061 78.613,89.729 78.574,89.39C78.517,88.885 78.318,88.349 78.115,87.886L72.1,74.183C71.873,73.668 71.607,73.138 71.269,72.687C71.027,72.364 70.73,72.092 70.351,71.943C69.974,71.794 69.544,71.864 69.17,71.983L68.756,72.116L68.276,71.023L76.638,67.351C78.137,66.694 79.719,66.2 81.346,65.994C82.777,65.812 84.228,65.828 85.643,66.119C86.975,66.394 88.237,66.877 89.396,67.588C90.559,68.301 91.581,69.202 92.455,70.248C93.385,71.359 94.129,72.602 94.711,73.928C95.101,74.818 95.343,75.761 95.453,76.726C95.571,77.759 95.509,78.797 95.308,79.816C95.089,80.922 94.664,81.97 94.095,82.941C93.452,84.039 92.591,84.993 91.629,85.82C90.482,86.806 89.154,87.579 87.772,88.186L77.743,92.589L77.251,91.467L77.578,91.24ZM105.463,67.434L103.113,70.051L104.497,78.143C104.582,78.645 104.729,79.154 104.975,79.602C105.153,79.928 105.39,80.219 105.716,80.406C106.017,80.58 106.348,80.605 106.687,80.551L107.159,80.476L107.379,81.762L98.306,83.314L98.099,82.106L98.472,81.965C98.848,81.823 99.273,81.611 99.541,81.303C99.771,81.039 99.89,80.723 99.93,80.377C99.987,79.879 99.922,79.327 99.838,78.835L97.293,63.948C97.173,63.245 96.944,62.384 96.46,61.836C96.065,61.389 95.535,61.237 94.949,61.247L94.534,61.254L94.336,60.098L103.41,58.547L103.611,59.726L103.189,59.842C102.823,59.942 102.428,60.11 102.178,60.407C101.944,60.683 101.84,61.029 101.806,61.385C101.754,61.916 101.822,62.496 101.911,63.02L102.545,66.73L105.994,62.844C106.26,62.543 106.498,62.211 106.733,61.886C106.972,61.555 107.196,61.211 107.4,60.857C107.569,60.563 107.727,60.25 107.839,59.929C107.901,59.751 107.957,59.528 107.927,59.339C107.918,59.28 107.899,59.2 107.845,59.166C107.752,59.108 107.555,59.107 107.451,59.112L107.021,59.135L106.821,57.964L115.894,56.412L116.103,57.631L115.632,57.717C115.114,57.811 114.62,58.015 114.162,58.271C113.651,58.556 113.167,58.885 112.717,59.258C112.326,59.582 111.944,59.931 111.61,60.314L108.329,64.078C109.438,64.848 110.504,65.687 111.486,66.613C112.461,67.532 113.388,68.509 114.226,69.556C114.953,70.463 115.652,71.4 116.285,72.376C116.816,73.194 117.339,74.018 117.841,74.853C118.233,75.505 118.641,76.152 119.082,76.771C119.316,77.099 119.594,77.439 119.91,77.709C120.088,77.537 120.247,77.339 120.386,77.144C120.794,76.569 121.136,75.919 121.434,75.282L128.738,59.619C128.804,59.477 128.862,59.332 128.903,59.181C128.937,59.061 128.965,58.933 128.974,58.809C128.988,58.625 128.976,58.411 128.855,58.261C128.726,58.103 128.528,58.015 128.335,57.965L127.944,57.864L128.031,56.705L136.628,57.351L136.543,58.478L136.177,58.546C135.989,58.581 135.791,58.651 135.655,58.791C135.531,58.918 135.463,59.089 135.425,59.261C135.449,59.391 135.474,59.521 135.504,59.649C135.547,59.836 135.547,60.036 135.594,60.215L140.341,78.126C140.389,78.31 140.458,78.494 140.526,78.671C140.614,78.899 140.726,79.119 140.853,79.328C140.972,79.525 141.119,79.697 141.296,79.843C141.437,79.96 141.597,80.025 141.779,80.043L142.251,80.088L142.153,81.385L133.351,80.723L133.44,79.528L133.806,79.46C134.097,79.405 134.413,79.302 134.647,79.114C134.841,78.96 134.982,78.766 135.076,78.537C135.186,78.27 135.245,77.99 135.264,77.701C135.305,77.092 135.195,76.482 134.997,75.907C134.757,75.21 134.391,74.56 133.957,73.967C133.46,73.286 132.858,72.689 132.199,72.166C131.471,71.589 130.662,71.135 129.803,70.784C128.967,70.441 128.086,70.229 127.191,70.118L124.725,75.657C124.609,75.918 124.517,76.187 124.444,76.463C124.372,76.733 124.281,77.018 124.252,77.297C124.212,77.679 124.321,78.019 124.546,78.327C124.783,78.651 125.236,78.774 125.613,78.829L126.059,78.894L125.963,80.168L119.531,79.684L113.294,80.751L113.085,79.53L113.474,79.397C113.643,79.339 113.914,79.224 114.002,79.054C114.097,78.871 114.081,78.625 114.046,78.429C113.997,78.157 113.922,77.89 113.829,77.63C113.721,77.326 113.62,77.02 113.49,76.724C112.688,74.901 111.48,73.266 110.154,71.79C108.728,70.203 107.137,68.758 105.463,67.434ZM159.78,62.299L168.2,66.1L167.697,67.215L167.266,67.041C166.929,66.904 166.516,66.794 166.151,66.876C165.831,66.949 165.574,67.132 165.36,67.378C165.055,67.729 164.817,68.173 164.626,68.595L159.683,79.544C159.262,80.476 158.939,81.553 159.017,82.586C159.081,83.432 159.363,84.186 159.911,84.837C160.522,85.563 161.345,86.086 162.201,86.477C162.613,86.666 163.044,86.818 163.48,86.941C163.992,87.087 164.52,87.167 165.051,87.193C165.613,87.219 166.172,87.136 166.708,86.97C167.298,86.787 167.821,86.442 168.272,86.026C168.861,85.484 169.299,84.757 169.625,84.033L174.23,73.835C174.467,73.309 174.704,72.738 174.848,72.178C174.924,71.88 175,71.506 174.974,71.197C174.959,71.035 174.923,70.848 174.829,70.711C174.741,70.583 174.636,70.475 174.506,70.392C174.327,70.277 174.145,70.168 173.962,70.061L173.585,69.842L174.076,68.753L181.089,71.919L180.608,72.986L180.21,72.878C179.946,72.807 179.678,72.763 179.404,72.748C179.187,72.737 178.979,72.791 178.785,72.885C178.519,73.015 178.278,73.276 178.099,73.505C177.761,73.935 177.485,74.48 177.261,74.977L173.151,84.081C172.634,85.225 171.991,86.318 171.183,87.283C170.428,88.185 169.52,88.916 168.46,89.427C167.353,89.962 166.155,90.156 164.932,90.108C163.462,90.049 161.992,89.579 160.655,88.987C160.118,88.75 159.593,88.483 159.077,88.205C158.471,87.877 157.893,87.499 157.344,87.084C156.755,86.637 156.219,86.129 155.75,85.556C155.257,84.955 154.883,84.279 154.622,83.546C154.334,82.737 154.259,81.876 154.316,81.023C154.385,79.986 154.706,78.959 155.131,78.016L160.046,67.13C160.191,66.81 160.323,66.486 160.438,66.155C160.55,65.835 160.619,65.504 160.636,65.166C160.652,64.87 160.585,64.589 160.448,64.327C160.285,64.015 159.967,63.779 159.668,63.608L159.287,63.39L159.78,62.299ZM207.652,105.688C207.709,105.769 207.764,105.849 207.819,105.931C207.955,106.135 208.063,106.353 208.193,106.56C208.623,107.249 209.121,107.793 209.634,108.409C209.921,108.754 210.272,109.133 210.645,109.385C210.836,109.514 211.053,109.609 211.288,109.583C211.577,109.55 211.879,109.368 212.108,109.199L212.352,109.019L213.462,109.603L207.329,115.97L206.222,115.322L206.578,114.885C206.986,114.383 207.393,113.817 207.662,113.226C207.852,112.809 207.978,112.357 207.973,111.896C207.968,111.431 207.851,110.979 207.668,110.554C207.421,109.979 207.101,109.428 206.754,108.909C206.367,108.329 205.966,107.759 205.558,107.193L197.504,112.981C197.29,113.134 197.084,113.294 196.895,113.476C196.727,113.637 196.611,113.824 196.536,114.045C196.449,114.302 196.502,114.632 196.57,114.887C196.704,115.386 197.05,115.929 197.348,116.346C197.425,116.455 197.505,116.561 197.585,116.668C197.662,116.77 197.749,116.866 197.831,116.964C198.384,117.617 198.943,118.253 199.591,118.814C200.274,119.407 201.039,119.889 201.857,120.275C202.774,120.707 203.768,120.954 204.771,121.086C205.989,121.246 207.248,121.167 208.458,120.973L208.823,120.914L209.347,122.069L199.413,125.13L199.552,124.35C199.583,124.176 199.598,123.984 199.558,123.809C199.519,123.636 199.407,123.455 199.303,123.313C199.155,123.11 198.997,122.913 198.836,122.72C198.608,122.445 198.391,122.162 198.183,121.872L189.649,109.996L190.715,109.229L190.997,109.627C191.32,110.084 191.731,110.286 192.29,110.24C193.105,110.173 194.069,109.566 194.716,109.102L206.311,100.769C206.795,100.421 207.29,100.037 207.702,99.604C207.981,99.31 208.196,98.963 208.271,98.561C208.351,98.135 208.198,97.68 208.009,97.304L207.824,96.935L208.774,96.251L217.71,108.685C217.763,108.759 217.814,108.827 217.857,108.907C217.892,108.971 217.92,109.037 217.941,109.106C218.061,109.232 218.189,109.35 218.326,109.458C218.466,109.567 218.632,109.636 218.802,109.683L219.551,109.89L214.019,116.103L213.119,115.34L213.35,114.983C213.795,114.297 214.101,113.556 214.248,112.752C214.398,111.934 214.399,111.107 214.285,110.284C214.165,109.423 213.931,108.589 213.598,107.785C213.258,106.964 212.824,106.19 212.305,105.468C212.015,105.064 211.631,104.586 211.218,104.301C211.009,104.155 210.739,104.01 210.476,104.008C210.249,104.005 210.039,104.06 209.839,104.168C209.581,104.307 209.337,104.477 209.099,104.648L207.652,105.688ZM205.986,131.518C206.037,131.681 206.087,131.843 206.137,132.006C206.262,132.411 206.368,132.824 206.512,133.224C207.091,134.827 207.976,136.238 209.113,137.502C210.055,138.548 211.153,139.429 212.428,140.036C213.64,140.612 214.91,140.952 216.247,141.056L216.637,141.087L216.8,142.3L206.506,142.348L206.9,141.629C206.961,141.516 206.99,141.398 206.966,141.271C206.923,141.043 206.823,140.795 206.737,140.58L200.903,125.921L225.302,130.546C225.228,130.319 225.154,130.093 225.077,129.868C224.912,129.384 224.734,128.904 224.547,128.429C224.249,127.673 223.892,126.939 223.465,126.248C223.058,125.588 222.555,125.007 221.967,124.503C221.337,123.964 220.605,123.571 219.827,123.292C218.859,122.943 217.793,122.803 216.768,122.767L216.36,122.753L216.204,121.594L225.234,120.268L224.658,121.163C224.581,121.282 224.561,121.4 224.574,121.541C224.594,121.757 224.641,121.975 224.699,122.185C224.752,122.254 224.801,122.326 224.842,122.403C224.881,122.475 224.909,122.546 224.939,122.622L230.382,136.298L205.986,131.518ZM230.722,125.569L233.622,128.989L232.33,130.264L227.374,126.897L228.694,121.099L230.519,121.198L230.722,125.569ZM224.889,150.07L228.651,153.651C228.942,153.929 229.266,154.178 229.583,154.424C229.906,154.674 230.241,154.91 230.588,155.126C230.877,155.306 231.183,155.474 231.501,155.598C231.676,155.666 231.897,155.729 232.087,155.706C232.146,155.699 232.226,155.683 232.262,155.63C232.324,155.54 232.332,155.342 232.33,155.238L232.323,154.808L233.5,154.649L234.734,163.771L233.508,163.936L233.439,163.463C233.363,162.941 233.177,162.441 232.937,161.974C232.669,161.454 232.358,160.959 232,160.496C231.69,160.094 231.355,159.7 230.984,159.353L227.337,155.942C226.529,157.024 225.653,158.06 224.694,159.009C223.741,159.952 222.731,160.843 221.657,161.645C220.724,162.34 219.764,163.006 218.766,163.604C217.93,164.106 217.089,164.6 216.236,165.073C215.572,165.441 214.91,165.827 214.276,166.246C213.863,166.52 213.428,166.859 213.127,167.258C212.926,167.525 212.841,167.816 212.881,168.149L212.939,168.623L212.858,168.634C213.041,168.869 213.27,169.078 213.493,169.254C214.045,169.692 214.676,170.068 215.297,170.399L230.557,178.512C230.694,178.586 230.836,178.651 230.985,178.701C231.102,178.74 231.229,178.775 231.352,178.791C231.535,178.814 231.75,178.814 231.906,178.7C232.07,178.58 232.169,178.386 232.229,178.196L232.351,177.811L233.503,177.959L232.408,186.51L231.286,186.367L231.238,185.997C231.213,185.808 231.154,185.607 231.021,185.464C230.9,185.333 230.734,185.257 230.564,185.209C230.433,185.226 230.302,185.244 230.171,185.267C229.983,185.301 229.783,185.29 229.602,185.328L211.467,189.13C211.281,189.169 211.094,189.228 210.914,189.287C210.681,189.363 210.456,189.464 210.24,189.579C210.037,189.687 209.858,189.825 209.702,189.995C209.578,190.129 209.505,190.286 209.478,190.467L209.408,190.935L208.118,190.77L209.239,182.014L210.428,182.166L210.477,182.535C210.517,182.829 210.603,183.149 210.778,183.393C210.922,183.595 211.108,183.746 211.332,183.852C211.593,183.975 211.87,184.049 212.157,184.084C212.765,184.157 213.376,184.079 213.963,183.91C214.671,183.707 215.339,183.376 215.955,182.974C216.66,182.512 217.288,181.943 217.845,181.312C218.46,180.615 218.955,179.831 219.351,178.992C219.737,178.174 219.995,177.306 220.153,176.418L214.75,173.666C214.496,173.536 214.231,173.43 213.96,173.343C213.694,173.257 213.414,173.151 213.137,173.107C212.76,173.048 212.41,173.14 212.093,173.347C211.757,173.567 211.61,174.013 211.536,174.386L211.448,174.829L210.181,174.666L211.197,166.728L211.37,166.75L210.5,160.322L211.728,160.156L211.847,160.55C211.899,160.721 212.005,160.996 212.172,161.09C212.352,161.191 212.598,161.183 212.795,161.155C213.068,161.116 213.338,161.05 213.601,160.967C213.909,160.869 214.218,160.779 214.518,160.659C216.369,159.921 218.045,158.771 219.565,157.498C221.201,156.127 222.701,154.587 224.082,152.961L221.55,150.521L213.414,151.622C212.91,151.69 212.396,151.818 211.94,152.048C211.607,152.215 211.308,152.442 211.11,152.761C210.926,153.055 210.889,153.386 210.931,153.726L210.99,154.201L209.696,154.376L208.463,145.254L209.677,145.09L209.805,145.467C209.934,145.848 210.13,146.28 210.429,146.558C210.684,146.797 210.997,146.928 211.341,146.98C211.837,147.054 212.39,147.009 212.885,146.942L227.851,144.918C228.559,144.822 229.427,144.624 229.992,144.159C230.452,143.779 230.622,143.255 230.633,142.669L230.64,142.254L231.803,142.097L233.036,151.219L231.851,151.379L231.75,150.953C231.662,150.584 231.508,150.183 231.22,149.923C230.952,149.68 230.61,149.564 230.256,149.517C229.727,149.447 229.145,149.494 228.618,149.565L224.889,150.07ZM24.702,155.271C25.255,155.363 25.825,155.385 26.384,155.407C26.975,155.431 27.567,155.411 28.156,155.358C29.335,155.252 30.544,155.044 31.656,154.627C32.564,154.288 33.438,153.832 34.192,153.219C34.844,152.689 35.417,152.074 35.852,151.353C36.249,150.693 36.553,149.98 36.69,149.22C36.855,148.31 36.802,147.4 36.591,146.502C36.376,145.589 35.992,144.75 35.447,143.985C34.87,143.176 34.138,142.518 33.299,141.989C32.351,141.39 31.293,141.023 30.194,140.821C29.366,140.668 28.524,140.607 27.682,140.622C26.801,140.638 25.923,140.737 25.06,140.916C24.2,141.095 23.361,141.365 22.558,141.72C21.782,142.064 21.052,142.499 20.392,143.032C19.751,143.55 19.209,144.164 18.772,144.861C18.316,145.587 18.023,146.388 17.871,147.23C17.73,148.002 17.741,148.783 17.93,149.545C18.112,150.28 18.418,150.963 18.853,151.583C19.299,152.222 19.836,152.791 20.444,153.278C21.072,153.78 21.756,154.196 22.485,154.536C23.191,154.865 23.931,155.143 24.702,155.271ZM44.504,106.536C44.693,106.029 44.864,105.513 45.019,104.995C45.25,104.222 45.438,103.437 45.584,102.644C45.72,101.901 45.81,101.146 45.827,100.39C45.841,99.778 45.79,99.146 45.622,98.556C45.5,98.133 45.3,97.725 44.948,97.447C44.677,97.234 44.376,97.105 44.03,97.088C43.657,97.071 43.299,97.143 42.952,97.279C42.552,97.436 42.17,97.642 41.82,97.892C41.458,98.152 41.111,98.434 40.794,98.746C40.531,99.004 40.251,99.281 40.032,99.578C39.79,99.905 39.589,100.252 39.384,100.603C39.237,100.856 39.106,101.139 39.043,101.426C38.996,101.638 39.013,101.839 39.093,102.04C39.197,102.303 39.439,102.536 39.656,102.708L44.504,106.536ZM54.755,78.727C54.795,78.658 54.782,78.471 54.776,78.418C54.738,78.083 54.492,77.707 54.291,77.447C54.127,77.236 53.897,76.997 53.64,76.903C53.605,76.891 53.451,76.842 53.415,76.87C53.379,76.897 53.397,77.096 53.401,77.132C53.449,77.484 53.606,77.818 53.81,78.106C53.941,78.292 54.102,78.44 54.293,78.562C54.393,78.626 54.538,78.707 54.658,78.721C54.681,78.724 54.723,78.728 54.755,78.727ZM82.04,85.113C82.153,85.371 82.28,85.62 82.426,85.861C82.58,86.113 82.784,86.317 83.022,86.49C83.279,86.676 83.615,86.741 83.925,86.756C84.42,86.781 85.002,86.579 85.45,86.387C85.917,86.187 86.377,85.969 86.828,85.733C87.263,85.506 87.675,85.237 88.067,84.94C88.494,84.617 88.885,84.244 89.236,83.839C89.786,83.204 90.167,82.461 90.424,81.664C90.706,80.786 90.804,79.878 90.755,78.958C90.7,77.926 90.434,76.931 90.022,75.985C89.442,74.657 88.7,73.407 87.759,72.303C86.922,71.32 85.948,70.482 84.817,69.858C83.765,69.278 82.638,68.946 81.438,68.88C80.166,68.81 78.934,69.099 77.77,69.598C77.449,69.735 77.13,69.889 76.833,70.073C76.62,70.204 76.429,70.369 76.289,70.578C76.164,70.765 76.12,70.981 76.121,71.203C76.123,71.559 76.27,71.969 76.411,72.291L82.04,85.113ZM128.261,67.549C128.823,67.626 129.379,67.749 129.924,67.906C130.781,68.153 131.593,68.523 132.359,68.979C132.724,69.196 133.071,69.44 133.402,69.705L131.172,61.382L128.261,67.549ZM222.662,177.621C222.555,178.178 222.403,178.727 222.218,179.263C221.926,180.106 221.515,180.898 221.019,181.638C220.783,181.992 220.521,182.326 220.239,182.642L228.668,180.851L222.662,177.621Z" style="fill:rgb(92,5,12);"></path>
        </g>
    </g>
</svg></svg></g></svg>