<?xml version="1.0" encoding="UTF-8" standalone="no"?><!DOCTYPE svg PUBLIC "-//W3C//DTD SVG 1.1//EN" "http://www.w3.org/Graphics/SVG/1.1/DTD/svg11.dtd"><svg width="100%" height="100%" viewBox="0 0 1035 856" version="1.1" xmlns="http://www.w3.org/2000/svg" xmlns:xlink="http://www.w3.org/1999/xlink" xml:space="preserve" xmlns:serif="http://www.serif.com/" style="fill-rule:evenodd;clip-rule:evenodd;stroke-linejoin:round;stroke-miterlimit:2;"><g><g><path d="M913.163,823.861c-25.721,-13.216 -52.083,-25.566 -78.966,-37.054c-27.567,-11.779 -55.655,-22.654 -84.13,-32.646l-7.366,-2.579l1.945,-1.979c-76.937,-25.483 -163.787,-46.396 -257.891,-61.692c-94.28,-15.312 -195.821,-24.995 -301.984,-27.979c-4.042,-0.05 -8.046,-0.091 -12,-0.112l-12.067,-0.017c-20.775,0 -41.221,0.317 -61.321,0.938c-20.37,0.625 -40.908,1.583 -61.566,2.854l-8.4,0.516l-4.017,0.246l-1.062,-3.896l-2.205,-8.12c-5.95,-21.892 -10.437,-44.213 -13.441,-66.796c-3.013,-22.625 -4.525,-45.392 -4.525,-68.13c-0,-141.725 57.45,-270.037 150.329,-362.917c92.879,-92.883 221.2,-150.333 362.925,-150.333c141.725,0 270.046,57.45 362.926,150.333c92.879,92.88 150.329,221.192 150.329,362.917c-0,54.421 -8.538,107.934 -25.092,158.846c-16.521,50.809 -41.054,99.034 -73.083,143.005l-5.209,7.154l-2.5,3.429l-3.766,-1.938l-7.863,-4.05Zm-75.087,-46.166c27.087,11.579 53.671,24.029 79.625,37.371l4.1,2.108l2.708,-3.721c31.379,-43.083 55.438,-90.379 71.65,-140.258c16.221,-49.888 24.588,-102.371 24.588,-155.78c-0,-138.983 -56.338,-264.816 -147.421,-355.9c-91.084,-91.083 -216.917,-147.421 -355.905,-147.421c-138.987,0 -264.825,56.338 -355.904,147.421c-91.084,91.084 -147.421,216.917 -147.421,355.9c-0,22.455 1.471,44.796 4.408,66.85c2.925,21.992 7.334,43.871 13.209,65.48l1.15,4.225l4.375,-0.267c20.45,-1.258 41.083,-2.217 61.879,-2.854c20.858,-0.646 41.396,-0.971 61.587,-0.971l12.1,0.054c4.079,0.021 8.142,0.063 12.159,0.109l0.075,-0c106.637,2.995 208.629,12.716 303.304,28.1c97.692,15.875 187.65,37.795 266.954,64.591l7.488,2.534l-2.117,2.154c26.238,9.366 52.067,19.454 77.409,30.275" style="fill:#f8fbef;fill-rule:nonzero;"/></g><g><path d="M517.709,182.406c92.425,-0 176.108,37.467 236.679,98.033c60.571,60.575 98.034,144.251 98.034,236.68c-0,92.425 -37.463,176.108 -98.034,236.679c-60.571,60.571 -144.254,98.034 -236.679,98.034c-92.425,-0 -176.105,-37.463 -236.675,-98.034c-60.571,-60.571 -98.038,-144.254 -98.038,-236.679c-0,-92.429 37.467,-176.105 98.038,-236.68c60.57,-60.566 144.25,-98.033 236.675,-98.033Zm229.7,105.013c-58.783,-58.784 -139.996,-95.142 -229.7,-95.142c-89.7,-0 -170.913,36.358 -229.7,95.142c-58.78,58.783 -95.142,139.996 -95.142,229.7c-0,89.704 36.362,170.917 95.142,229.7c58.787,58.783 140,95.142 229.7,95.142c89.704,-0 170.917,-36.359 229.7,-95.142c58.783,-58.783 95.146,-139.996 95.146,-229.7c-0,-89.704 -36.363,-170.917 -95.146,-229.7" style="fill:#f8fbef;fill-rule:nonzero;"/></g><g><path d="M350.854,489.23c8.984,0.9 13.238,6.53 17.592,12.059c-5.479,1.558 -8.05,6.021 -11.054,10.05c7.483,-3.617 18.142,-2.738 22.612,3.016c-0.675,-16.241 -14.183,-29.816 -29.15,-25.125Zm227.271,213.651c10.588,-30.955 12.405,-79.617 -2.65,-113.655c8.05,71.438 -10.079,134.905 -31.637,163.571c-13.042,-102.004 -155.204,-111.475 -166.954,-15.458c-22.225,-48.404 -26.755,-65.263 -28.538,-157.154c13.508,27.525 33.133,48.937 66.833,56.279c-37.229,-15.971 -60.687,-50.734 -62.312,-98.996c4.304,0.387 7.421,1.958 11.558,2.512c-20.25,-8.7 -41.454,-42.045 -22.112,-65.825c21.316,-18.733 50.979,10.93 49.75,33.167c26.946,27.813 100.721,33.592 143.717,16.075c-14.092,30.063 -11.184,81.808 5.525,108.546c-16.259,-1.937 -30.521,6.638 -27.134,22.613c-21.2,1.033 -38.712,-5.759 -53.771,-11.059c15.167,13.946 51.063,24.238 78.392,24.625c12.279,0.171 26.4,-6.791 25.125,-20.1c-0.687,-7.208 -6.342,-9.087 -11.054,-14.575c-6.492,-7.55 -16.313,-32.942 -14.071,-46.729c0,-0 24.096,-18.233 1.508,-35.679c2.85,-18.992 9.617,-34.063 22.759,-42.763c9.446,-10.083 15.754,-22.325 17.508,-36.746c-4.062,6.942 -18.787,19.621 -30.475,22.717c3.879,-44.737 -9.033,-84.129 -32.142,-103.617c4.009,19.871 -1.979,43.696 -10.525,54.305c7.188,-32.238 -1.15,-64.651 -13.3,-86.996c39.846,19.762 70.067,51.65 68.709,110.821c9.812,-10.505 17.833,-27.605 23.275,-44.33c15.554,27.038 4.129,69.409 -11.279,89.905c42.737,41.516 44.95,148.058 3.295,188.546Zm159.155,-289.53c17.712,8.754 36.15,16.784 51.758,27.638c-33.083,-63.567 -86.808,-106.484 -158.287,-131.655c19.7,-6.937 50.054,-4.091 69.345,1.005c-46.154,-39.884 -148.166,-64.505 -222.608,-32.663c12.962,-16.354 29.575,-29.05 49.246,-38.692c-86.475,6.155 -144.321,43.613 -185.425,93.463c5.104,-20.521 10.329,-40.925 18.591,-58.288c-51.825,44.384 -105.008,121.405 -84.921,223.113c-14.325,-18.675 -22.208,-43.787 -31.658,-67.337c-5.317,111.679 35.483,177.916 95.704,228.912c9.279,47.184 15.354,72.213 52.121,123.079c-10.45,-25.329 -11.596,-67.941 44.663,-93.558c50.937,-23.192 109.4,48.958 90.287,94.679c30.759,-25.537 38.225,-37.046 51.338,-68c20.937,-1.587 31.7,-1.975 55.329,-6.725c34.171,-6.875 64.771,-24.7 83.413,-45.229c-4.763,22.371 -15.455,35.904 -27.663,50.558c51.646,-31.404 102.45,-74.175 89.975,-162.612c10.571,14.883 19.667,31.25 28.142,48.241c3.404,-86.187 -25.971,-146.537 -69.35,-185.929Zm-249.742,162.309c2.762,-14.155 -25.504,-30.905 -35.679,-15.58c-11.463,22.13 29.875,38.63 35.679,15.58" style="fill:#f8fbef;fill-rule:nonzero;"/></g><g><path d="M200.638,718.584c-60.067,1.017 -118.967,4.704 -176.388,10.796c7.138,17.804 15.275,35.091 24.342,51.8c82.521,-12.342 204.283,-20.221 257.287,-21.117c48.53,-0.821 46.542,-0.442 59.046,-0.254c-7.583,-12.417 -14.229,-25.238 -19.55,-39.029c-45.341,-2.196 -99.475,-2.963 -144.737,-2.196Zm197.225,42.025c41.437,1.192 82.258,3.667 122.346,7.35c0.933,-9.888 -1.521,-20.246 -5.709,-29.671c-33.295,-4.883 -75.47,-10.987 -110.062,-14.171c-6.2,8.875 -9.8,19.396 -9.446,31.771c0.15,0.246 0.3,0.496 0.45,0.742l2.421,3.979Zm155.429,10.692c113.171,13 229.209,36.704 326.45,67.45l1.963,-2.809c-90.367,-36.971 -200.467,-68.366 -309.492,-88.637c-1.088,1.816 -2.221,3.604 -3.404,5.362c-4.554,6.746 -9.834,12.884 -15.517,18.634" style="fill:#024940;"/></g><g><path d="M774.659,209.28c-1.567,0.888 -3.067,1.888 -4.508,2.959c-1.367,1.012 -2.771,2.037 -3.967,3.245c-1.863,1.88 -3.188,4.134 -4.096,6.609c-0.796,2.171 -1.237,4.429 -1.154,6.741c0.079,2.155 0.525,4.25 1.412,6.213c0.867,1.929 2.071,3.625 3.6,5.087c1.28,1.217 2.759,2.196 4.334,2.984c1.687,0.846 3.525,1.287 5.404,1.412c2.125,0.146 4.225,-0.362 6.171,-1.187c2.604,-1.096 4.954,-3.071 6.875,-5.109l35.212,-37.371c1.85,-1.962 3.8,-4.12 5.313,-6.362c0.758,-1.125 1.671,-2.654 1.904,-4.008c0.158,-0.896 0.092,-1.775 -0.292,-2.605c-0.533,-1.145 -1.321,-2.22 -2.162,-3.158l-1.234,-1.379l3.438,-3.646l27.913,26.304l-3.342,3.546l-1.417,-0.958c-1.216,-0.821 -2.696,-1.592 -4.187,-1.663c-1.246,-0.058 -2.471,0.146 -3.6,0.688c-1.192,0.566 -2.317,1.267 -3.313,2.137c-0.933,0.813 -1.829,1.675 -2.679,2.575l-35.504,37.68c-2.821,2.995 -6.121,5.554 -9.913,7.187c-3.312,1.425 -6.821,2.25 -10.433,2.271c-3.438,0.021 -6.8,-0.458 -10.071,-1.521c-3.158,-1.025 -6.187,-2.396 -9.004,-4.15c-2.638,-1.637 -5.133,-3.504 -7.396,-5.633c-3.054,-2.879 -5.6,-6.2 -7.675,-9.842c-2.125,-3.729 -3.725,-7.717 -4.758,-11.879c-1.063,-4.258 -1.492,-8.638 -1.325,-13.021l0.058,-1.475l29.858,-8.217l2.15,4.63l-1.612,0.916Zm-676.959,321.642l2.5,38.65l41.804,-2.704c2.671,-0.171 5.671,-0.525 8.204,-1.408c1.438,-0.505 3.021,-1.305 3.938,-2.567c0.892,-1.225 1.208,-2.704 1.225,-4.2l0.025,-1.863l5.3,-0.341l2.475,38.275l-5.346,0.341l-0.225,-1.895c-0.179,-1.542 -0.646,-3.063 -1.704,-4.238c-1.013,-1.129 -2.342,-1.808 -3.792,-2.2c-1.979,-0.533 -4.083,-0.633 -6.121,-0.5l-65.508,4.238c-2.029,0.133 -4.279,0.558 -6.025,1.654c-1.246,0.779 -2.362,1.779 -3.046,3.096c-0.616,1.183 -1.033,2.437 -1.133,3.775l-0.129,1.745l-4.9,0.317l-2.475,-38.275l4.979,-0.321l0.292,1.813c0.225,1.412 0.687,3.025 1.691,4.091c0.863,0.909 1.867,1.563 3.067,1.921c1.317,0.388 2.646,0.604 4.017,0.625c1.279,0.017 2.55,-0.029 3.825,-0.112l8.833,-0.571l-2.5,-38.65l-5.696,0.367c-2.779,0.179 -5.854,0.458 -8.554,1.183c-1.329,0.358 -3.071,0.946 -4.142,1.85c-0.708,0.592 -1.262,1.3 -1.533,2.187c-0.342,1.142 -0.5,2.325 -0.538,3.513l-0.058,1.829l-4.979,0.321l-2.5,-38.7l4.987,-0.325l0.284,1.821c0.221,1.412 0.687,2.833 1.621,3.946c0.779,0.941 1.737,1.645 2.875,2.095c1.262,0.496 2.583,0.788 3.937,0.884c1.396,0.104 2.796,0.112 4.196,0.021l61.367,-3.971c2.433,-0.159 4.925,-0.496 7.258,-1.221c1.704,-0.533 3.317,-1.375 4.525,-2.717c1.154,-1.279 1.521,-3 1.554,-4.679l0.042,-1.85l5.283,-0.342l2.504,38.705l-5.308,0.341l-0.254,-1.858c-0.204,-1.458 -0.617,-3.138 -1.55,-4.317c-0.754,-0.946 -1.659,-1.583 -2.809,-1.962c-1.425,-0.471 -2.916,-0.675 -4.412,-0.696c-1.858,-0.025 -3.717,0.054 -5.567,0.175l-41.804,2.704Zm-30.158,-101.775c1.283,-6.567 3.475,-12.946 6.746,-18.792c2.8,-5.004 6.291,-9.575 10.612,-13.362c3.967,-3.475 8.404,-6.292 13.3,-8.267c4.742,-1.912 9.671,-3.083 14.763,-3.521c5.029,-0.433 10.112,-0.204 15.075,0.729c5.412,1.021 10.558,2.913 15.341,5.642c4.646,2.654 8.771,5.958 12.338,9.946c3.587,4.012 6.462,8.529 8.65,13.446c2.279,5.112 3.708,10.496 4.354,16.054c0.692,5.983 0.542,12.004 -0.675,17.917c-1.208,5.879 -3.404,11.433 -6.458,16.591c-2.717,4.584 -6.03,8.734 -10.059,12.238c-3.787,3.292 -7.991,6 -12.596,8.012c-4.483,1.963 -9.191,3.3 -14.041,3.971c-4.825,0.667 -9.696,0.854 -14.529,0.125c-5.43,-0.812 -10.575,-2.675 -15.475,-5.121c-4.767,-2.379 -9.142,-5.404 -13.021,-9.058c-3.867,-3.642 -7.104,-7.812 -9.646,-12.483c-2.604,-4.784 -4.317,-9.95 -5.183,-15.329c-0.938,-5.846 -0.75,-11.763 0.291,-17.584c0.042,-0.225 0.084,-0.454 0.125,-0.683c0.029,-0.154 0.059,-0.313 0.088,-0.471Zm49.233,-90.9c1.1,0.446 2.163,0.429 3.308,0.046c1.696,-0.571 3.292,-1.638 4.671,-2.763c1.946,-1.587 3.775,-3.341 5.517,-5.154c2.05,-2.133 4.071,-4.292 6.108,-6.437c2.171,-2.288 4.354,-4.55 6.529,-6.83c2.046,-2.145 4.125,-4.258 6.267,-6.308c1.767,-1.687 3.642,-3.404 5.65,-4.804c2.913,-2.038 6.138,-3.483 9.588,-4.321c3.312,-0.8 6.683,-0.983 10.062,-0.558c3.404,0.425 6.654,1.458 9.7,3.041c3.842,1.996 7.229,4.671 9.933,8.063c2.575,3.229 4.48,6.842 5.738,10.775c1.258,3.937 1.892,8.004 1.962,12.137c0.067,4.15 -0.358,8.28 -1.304,12.321c-0.925,3.971 -2.3,7.813 -4.171,11.438c-1.529,2.966 -3.329,5.796 -5.358,8.446c-2.054,2.679 -4.354,5.158 -6.842,7.441c-0.612,0.563 -1.183,1.167 -1.741,1.779c-0.504,0.555 -0.934,1.175 -1.275,1.842c-0.454,0.875 -0.829,1.858 -0.917,2.85c-0.058,0.667 0.029,1.304 0.354,1.892l2.25,4.054l-42.162,-10.525l1.504,-5.25l1.867,0.437c2.612,0.609 5.304,0.846 7.983,0.863c3.042,0.021 6.075,-0.329 9.05,-0.963c3.162,-0.675 6.217,-1.733 9.129,-3.137c2.992,-1.438 5.729,-3.321 8.188,-5.554c2.595,-2.363 4.762,-5.084 6.354,-8.221c1.058,-2.1 1.796,-4.396 2.471,-6.642c0.708,-2.358 1.175,-4.775 1.429,-7.221c0.241,-2.312 0.183,-4.654 -0.213,-6.945c-0.375,-2.146 -1.15,-4.146 -2.346,-5.967c-1.279,-1.95 -2.962,-3.454 -5.004,-4.571c-1.608,-0.883 -3.371,-1.562 -5.187,-1.833c-1.421,-0.213 -2.817,-0.096 -4.184,0.35c-1.641,0.533 -3.212,1.412 -4.62,2.404c-2.034,1.433 -3.984,3.021 -5.875,4.637c-2.571,2.196 -5.025,4.525 -7.338,6.996c-2.35,2.517 -4.7,5.038 -7.017,7.588c-2.241,2.462 -4.591,4.821 -7.062,7.054c-2.292,2.075 -4.825,3.937 -7.575,5.371c-3.038,1.583 -6.296,2.525 -9.721,2.733c-3.546,0.213 -7.008,-0.621 -10.221,-2.087l-0.175,-0.08l-0.154,-0.112c-0.8,-0.571 -1.608,-1.133 -2.412,-1.7c-0.813,-0.571 -1.684,-1.05 -2.496,-1.642c-2.8,-2.054 -4.588,-4.996 -5.825,-8.187c-1.229,-3.163 -1.784,-6.484 -1.8,-9.867c-0.017,-3.604 0.496,-7.162 1.421,-10.642c0.975,-3.654 2.345,-7.183 4.095,-10.533c1.175,-2.242 2.546,-4.367 4.059,-6.396c1.458,-1.954 2.975,-3.871 4.541,-5.741c1.446,-1.73 2.863,-3.484 4.23,-5.28c0.308,-0.833 0.55,-1.745 0.583,-2.629c0.021,-0.679 -0.083,-1.329 -0.417,-1.929l-2.371,-4.279l34.384,9.996l-1.121,4.746l-1.767,-0.192c-3.616,-0.392 -7.304,-0.313 -10.854,0.542c-3.187,0.77 -6.242,1.987 -9.025,3.741c-2.646,1.667 -5.079,3.65 -7.167,5.988c-1.966,2.204 -3.675,4.633 -5.02,7.266c-0.846,1.659 -1.538,3.384 -2.005,5.184c-0.441,1.691 -0.629,3.425 -0.554,5.175c0.067,1.591 0.471,3.121 1.196,4.541c0.733,1.446 1.879,2.613 3.175,3.563Zm81.679,-66.138l20.105,15.88c2.02,1.595 4.554,3.3 7.041,4.041c1.388,0.413 3.079,0.725 4.492,0.263c1.158,-0.379 2.112,-1.034 2.854,-2l1.242,-1.625l4.308,3.404l-23.767,30.1l-4.029,-3.183l0.796,-1.488c0.55,-1.025 1.004,-2.087 1.367,-3.192c0.275,-0.845 0.275,-1.704 0.079,-2.566c-0.275,-1.246 -1.229,-2.596 -2.017,-3.571c-1.612,-1.992 -3.817,-3.863 -5.825,-5.45l-48.037,-37.933c-1.73,-1.367 -3.667,-2.68 -5.717,-3.521c-1.425,-0.588 -2.95,-0.896 -4.488,-0.613c-1.554,0.288 -2.891,1.317 -3.945,2.446l-1.267,1.358l-3.933,-3.108l34.841,-44.121c1.821,-2.308 3.85,-4.483 6.134,-6.341c2.079,-1.696 4.375,-3.076 6.904,-3.98c2.441,-0.875 4.966,-1.116 7.525,-0.708c2.771,0.446 5.283,1.737 7.475,3.454c0.466,0.363 0.9,0.763 1.321,1.179c0.391,0.396 0.795,0.78 1.183,1.184c2.375,2.471 3.846,5.7 4.767,8.966c1.175,4.167 1.341,8.75 1.121,13.055c-0.3,5.829 -1.546,11.775 -3.08,17.395c-1.921,7.03 -4.566,13.971 -7.45,20.675Zm-1.871,-84.921l30.463,-23.541l3.113,4.029l-1.484,1.246c-1.162,0.971 -2.375,2.279 -2.783,3.779c-0.363,1.321 -0.188,2.625 0.296,3.892c0.696,1.816 1.858,3.55 3.041,5.083l30.613,39.604c2.604,3.371 5.933,6.663 9.887,8.4c3.225,1.413 6.575,1.85 10.03,1.113c3.866,-0.829 7.4,-2.829 10.516,-5.217c1.496,-1.146 2.9,-2.433 4.209,-3.796c1.533,-1.6 2.866,-3.387 3.995,-5.291c1.205,-2.017 1.988,-4.225 2.425,-6.53c0.48,-2.529 0.234,-5.125 -0.412,-7.6c-0.842,-3.225 -2.663,-6.258 -4.688,-8.879l-28.512,-36.887c-1.471,-1.905 -3.108,-3.892 -4.888,-5.517c-0.941,-0.863 -2.17,-1.875 -3.358,-2.379c-0.625,-0.263 -1.387,-0.496 -2.075,-0.417c-0.65,0.075 -1.25,0.263 -1.829,0.575c-0.767,0.421 -1.513,0.879 -2.254,1.342l-1.546,0.958l-3.046,-3.937l25.367,-19.609l2.983,3.859l-1.175,1.254c-0.779,0.829 -1.467,1.733 -2.054,2.708c-0.467,0.779 -0.671,1.646 -0.704,2.546c-0.046,1.233 0.441,2.629 0.933,3.737c0.925,2.088 2.388,4.167 3.779,5.963l25.45,32.929c3.2,4.142 5.963,8.646 7.934,13.504c1.841,4.542 2.754,9.313 2.562,14.213c-0.2,5.117 -1.829,9.904 -4.4,14.308c-3.092,5.296 -7.696,9.784 -12.487,13.546c-1.921,1.508 -3.93,2.921 -5.967,4.271c-2.388,1.587 -4.908,2.979 -7.513,4.183c-2.795,1.296 -5.712,2.271 -8.737,2.875c-3.175,0.638 -6.396,0.696 -9.6,0.221c-3.542,-0.525 -6.854,-1.933 -9.883,-3.812c-3.68,-2.28 -6.83,-5.467 -9.467,-8.88l-30.433,-39.375c-0.896,-1.158 -1.83,-2.279 -2.821,-3.35c-0.963,-1.037 -2.046,-1.937 -3.254,-2.666c-1.067,-0.642 -2.217,-0.938 -3.455,-0.946c-1.471,-0.013 -2.937,0.671 -4.15,1.45l-1.554,1.004l-3.067,-3.963Zm25.105,-35.579c-1.325,-1.871 -2.213,-3.962 -2.621,-6.212c-0.333,-1.854 -0.296,-3.725 0.292,-5.529c0.545,-1.663 1.508,-3.08 2.891,-4.15c1.388,-1.071 2.963,-1.684 4.7,-1.875c1.859,-0.205 3.679,0.175 5.363,0.966c1.987,0.934 3.629,2.429 4.946,4.167c1.404,1.85 2.562,3.971 3.05,6.258c0.395,1.863 0.379,3.8 -0.28,5.604c-0.616,1.68 -1.587,3.125 -3.008,4.221c-1.412,1.096 -3.079,1.679 -4.85,1.859c-1.896,0.191 -3.708,-0.221 -5.421,-1.03c-2.05,-0.962 -3.758,-2.433 -5.062,-4.279Zm105.721,49.775c1.354,-0.941 2.712,-2.166 3.487,-3.646c0.667,-1.266 0.825,-2.65 0.663,-4.062c-0.238,-2.104 -1.067,-4.338 -1.913,-6.267l-25.062,-57.096c-0.946,-2.145 -2.055,-4.354 -3.463,-6.233c-1.008,-1.346 -2.246,-2.479 -3.825,-3.1c-1.571,-0.621 -3.362,-0.329 -4.921,0.167l-1.725,0.554l-2,-4.554l34.842,-15.3c6.246,-2.738 12.837,-4.796 19.617,-5.654c5.962,-0.759 12.008,-0.692 17.904,0.52c5.55,1.146 10.808,3.159 15.637,6.121c4.846,2.971 9.104,6.725 12.746,11.084c3.875,4.629 6.975,9.808 9.4,15.333c1.625,3.708 2.633,7.637 3.092,11.658c0.491,4.304 0.233,8.629 -0.604,12.875c-0.913,4.609 -2.684,8.975 -5.055,13.021c-2.679,4.575 -6.266,8.55 -10.275,11.996c-4.779,4.108 -10.312,7.329 -16.07,9.858l-41.788,18.346l-2.05,-4.675l1.363,-0.946Zm116.187,-99.191l-9.791,10.904l5.766,33.716c0.354,2.092 0.967,4.213 1.992,6.08c0.742,1.358 1.729,2.57 3.087,3.35c1.255,0.725 2.634,0.829 4.046,0.604l1.967,-0.313l0.917,5.359l-37.805,6.466l-0.862,-5.033l1.554,-0.588c1.567,-0.591 3.338,-1.475 4.454,-2.758c0.959,-1.1 1.454,-2.417 1.621,-3.858c0.238,-2.075 -0.033,-4.375 -0.383,-6.425l-10.605,-62.029c-0.5,-2.93 -1.454,-6.517 -3.47,-8.8c-1.646,-1.863 -3.855,-2.496 -6.296,-2.455l-1.729,0.03l-0.825,-4.817l37.808,-6.463l0.838,4.913l-1.759,0.483c-1.525,0.417 -3.171,1.117 -4.212,2.354c-0.975,1.15 -1.409,2.592 -1.55,4.075c-0.217,2.213 0.066,4.63 0.437,6.813l2.642,15.458l14.371,-16.191c1.108,-1.255 2.1,-2.638 3.079,-3.992c0.996,-1.379 1.929,-2.813 2.779,-4.288c0.704,-1.225 1.363,-2.529 1.829,-3.866c0.259,-0.742 0.492,-1.671 0.367,-2.459c-0.038,-0.245 -0.117,-0.579 -0.342,-0.72c-0.387,-0.242 -1.208,-0.246 -1.641,-0.225l-1.792,0.095l-0.833,-4.879l37.804,-6.466l0.871,5.079l-1.963,0.358c-2.158,0.392 -4.217,1.242 -6.125,2.308c-2.129,1.188 -4.146,2.559 -6.021,4.113c-1.629,1.35 -3.221,2.804 -4.612,4.4l-13.671,15.683c4.621,3.209 9.062,6.704 13.154,10.563c4.063,3.829 7.925,7.9 11.417,12.262c3.029,3.779 5.941,7.684 8.579,11.75c2.212,3.409 4.392,6.842 6.483,10.321c1.634,2.717 3.334,5.413 5.171,7.992c0.975,1.366 2.133,2.783 3.45,3.908c0.742,-0.717 1.404,-1.542 1.983,-2.354c1.7,-2.396 3.125,-5.104 4.367,-7.758l30.433,-65.263c0.275,-0.592 0.517,-1.196 0.688,-1.825c0.142,-0.5 0.258,-1.033 0.296,-1.55c0.058,-0.767 0.008,-1.658 -0.496,-2.283c-0.538,-0.659 -1.363,-1.025 -2.167,-1.234l-1.629,-0.42l0.363,-4.83l35.82,2.692l-0.354,4.696l-1.525,0.283c-0.783,0.146 -1.608,0.438 -2.175,1.021c-0.516,0.529 -0.8,1.242 -0.958,1.958c0.1,0.542 0.204,1.084 0.329,1.617c0.179,0.779 0.179,1.613 0.375,2.358l19.779,74.63c0.2,0.766 0.488,1.533 0.771,2.27c0.367,0.95 0.833,1.867 1.363,2.738c0.495,0.821 1.108,1.537 1.845,2.146c0.588,0.487 1.255,0.758 2.013,0.833l1.967,0.188l-0.409,5.404l-36.675,-2.759l0.371,-4.979l1.525,-0.283c1.213,-0.229 2.529,-0.658 3.504,-1.442c0.809,-0.641 1.396,-1.45 1.788,-2.404c0.458,-1.112 0.704,-2.279 0.783,-3.483c0.171,-2.538 -0.287,-5.079 -1.112,-7.475c-1,-2.904 -2.525,-5.613 -4.334,-8.084c-2.071,-2.837 -4.579,-5.325 -7.325,-7.504c-3.033,-2.404 -6.404,-4.296 -9.983,-5.758c-3.483,-1.429 -7.154,-2.313 -10.883,-2.775l-10.275,23.079c-0.484,1.088 -0.867,2.208 -1.171,3.358c-0.3,1.125 -0.679,2.313 -0.8,3.475c-0.167,1.592 0.287,3.009 1.225,4.292c0.987,1.35 2.875,1.863 4.446,2.092l1.858,0.271l-0.4,5.308l-26.8,-2.017l-25.988,4.446l-0.87,-5.087l1.62,-0.555c0.705,-0.241 1.834,-0.72 2.2,-1.429c0.396,-0.762 0.33,-1.787 0.184,-2.604c-0.204,-1.133 -0.517,-2.246 -0.904,-3.329c-0.45,-1.267 -0.871,-2.542 -1.413,-3.775c-3.342,-7.596 -8.375,-14.408 -13.9,-20.558c-5.942,-6.613 -12.571,-12.634 -19.546,-18.15Zm226.321,-21.396l35.084,15.837l-2.096,4.646l-1.796,-0.725c-1.404,-0.571 -3.125,-1.029 -4.646,-0.687c-1.333,0.304 -2.404,1.066 -3.296,2.091c-1.271,1.463 -2.262,3.313 -3.058,5.071l-20.596,45.621c-1.754,3.883 -3.1,8.371 -2.775,12.675c0.267,3.525 1.442,6.667 3.725,9.379c2.546,3.025 5.975,5.204 9.542,6.833c1.716,0.788 3.512,1.421 5.329,1.934c2.133,0.608 4.333,0.941 6.546,1.05c2.341,0.108 4.671,-0.238 6.904,-0.929c2.458,-0.763 4.637,-2.2 6.517,-3.934c2.454,-2.258 4.279,-5.287 5.637,-8.304l19.188,-42.492c0.987,-2.191 1.975,-4.57 2.575,-6.904c0.316,-1.241 0.633,-2.8 0.525,-4.087c-0.063,-0.675 -0.213,-1.454 -0.605,-2.025c-0.366,-0.534 -0.804,-0.984 -1.345,-1.329c-0.746,-0.48 -1.505,-0.934 -2.267,-1.38l-1.571,-0.912l2.046,-4.538l29.221,13.192l-2.004,4.446l-1.659,-0.45c-1.1,-0.296 -2.216,-0.479 -3.358,-0.542c-0.904,-0.046 -1.771,0.179 -2.579,0.571c-1.109,0.542 -2.113,1.629 -2.859,2.583c-1.408,1.792 -2.558,4.063 -3.491,6.134l-17.125,37.933c-2.154,4.767 -4.834,9.321 -8.2,13.342c-3.146,3.758 -6.929,6.804 -11.346,8.933c-4.613,2.229 -9.604,3.038 -14.7,2.838c-6.125,-0.246 -12.25,-2.205 -17.821,-4.671c-2.237,-0.988 -4.425,-2.1 -6.575,-3.259c-2.525,-1.366 -4.933,-2.941 -7.221,-4.67c-2.454,-1.863 -4.687,-3.98 -6.641,-6.367c-2.055,-2.504 -3.613,-5.321 -4.7,-8.375c-1.2,-3.371 -1.513,-6.958 -1.275,-10.513c0.287,-4.32 1.625,-8.6 3.395,-12.529l20.48,-45.358c0.604,-1.333 1.154,-2.683 1.633,-4.063c0.467,-1.333 0.754,-2.712 0.825,-4.12c0.067,-1.234 -0.213,-2.405 -0.783,-3.496c-0.68,-1.3 -2.005,-2.284 -3.25,-2.996l-1.588,-0.908l2.054,-4.546Zm199.467,180.787c0.238,0.338 0.467,0.671 0.696,1.013c0.567,0.85 1.017,1.758 1.558,2.621c1.792,2.871 3.867,5.137 6.004,7.704c1.196,1.437 2.659,3.017 4.213,4.067c0.796,0.537 1.7,0.933 2.679,0.825c1.204,-0.138 2.463,-0.896 3.417,-1.6l1.016,-0.75l4.625,2.433l-25.554,26.529l-4.612,-2.7l1.483,-1.821c1.7,-2.091 3.396,-4.45 4.517,-6.912c0.791,-1.738 1.316,-3.621 1.296,-5.542c-0.021,-1.937 -0.509,-3.821 -1.271,-5.592c-1.029,-2.395 -2.363,-4.691 -3.809,-6.854c-1.612,-2.416 -3.283,-4.791 -4.983,-7.15l-33.558,24.117c-0.892,0.637 -1.75,1.304 -2.538,2.062c-0.7,0.671 -1.183,1.45 -1.496,2.371c-0.362,1.071 -0.141,2.446 0.142,3.509c0.558,2.079 2,4.341 3.242,6.079c0.32,0.454 0.654,0.896 0.987,1.341c0.321,0.425 0.683,0.825 1.025,1.234c2.304,2.721 4.633,5.371 7.334,7.708c2.845,2.471 6.033,4.479 9.441,6.088c3.821,1.8 7.963,2.829 12.142,3.379c5.075,0.666 10.321,0.337 15.362,-0.471l1.521,-0.246l2.184,4.813l-41.392,12.754l0.579,-3.25c0.129,-0.725 0.192,-1.525 0.025,-2.254c-0.162,-0.721 -0.629,-1.475 -1.062,-2.067c-0.617,-0.846 -1.276,-1.667 -1.946,-2.471c-0.95,-1.146 -1.855,-2.325 -2.721,-3.533l-35.559,-49.484l4.442,-3.195l1.175,1.658c1.346,1.904 3.058,2.746 5.388,2.554c3.395,-0.279 7.412,-2.808 10.108,-4.742l48.313,-34.72c2.016,-1.45 4.079,-3.05 5.795,-4.855c1.163,-1.225 2.059,-2.67 2.371,-4.345c0.334,-1.775 -0.304,-3.671 -1.091,-5.238l-0.771,-1.537l3.958,-2.85l37.233,51.808c0.221,0.308 0.434,0.592 0.613,0.925c0.146,0.267 0.262,0.542 0.35,0.829c0.5,0.525 1.033,1.017 1.604,1.467c0.583,0.454 1.275,0.741 1.983,0.937l3.121,0.863l-23.05,25.887l-3.75,-3.179l0.963,-1.487c1.854,-2.859 3.129,-5.946 3.741,-9.296c0.625,-3.409 0.63,-6.854 0.155,-10.284c-0.5,-3.587 -1.475,-7.062 -2.863,-10.412c-1.417,-3.421 -3.225,-6.646 -5.387,-9.654c-1.209,-1.684 -2.809,-3.675 -4.53,-4.863c-0.87,-0.608 -1.995,-1.212 -3.091,-1.221c-0.946,-0.012 -1.821,0.217 -2.654,0.667c-1.075,0.579 -2.092,1.288 -3.084,2l-6.029,4.333Zm-6.942,107.625c0.213,0.68 0.421,1.355 0.63,2.034c0.52,1.687 0.962,3.408 1.562,5.075c2.413,6.679 6.1,12.558 10.838,17.825c3.925,4.358 8.5,8.029 13.812,10.558c5.05,2.4 10.342,3.817 15.913,4.25l1.625,0.129l0.679,5.054l-42.892,0.2l1.642,-2.995c0.254,-0.471 0.375,-0.963 0.275,-1.492c-0.179,-0.95 -0.596,-1.983 -0.954,-2.879l-24.309,-61.079l101.663,19.27c-0.309,-0.945 -0.617,-1.887 -0.938,-2.825c-0.687,-2.016 -1.429,-4.016 -2.208,-5.995c-1.242,-3.15 -2.729,-6.209 -4.508,-9.088c-1.696,-2.75 -3.792,-5.171 -6.242,-7.271c-2.625,-2.246 -5.675,-3.883 -8.917,-5.046c-4.033,-1.454 -8.475,-2.037 -12.746,-2.187l-1.7,-0.058l-0.65,-4.83l37.625,-5.525l-2.4,3.73c-0.32,0.495 -0.404,0.987 -0.35,1.575c0.084,0.9 0.28,1.808 0.521,2.683c0.221,0.287 0.425,0.587 0.596,0.908c0.163,0.3 0.279,0.596 0.404,0.913l22.679,56.983l-101.65,-19.917Zm103.067,-24.787l12.083,14.25l-5.383,5.312l-20.65,-14.029l5.5,-24.158l7.604,0.412l0.846,18.213Zm-24.304,102.088l15.675,14.92c1.212,1.159 2.562,2.196 3.883,3.221c1.346,1.042 2.742,2.025 4.188,2.925c1.204,0.75 2.479,1.45 3.804,1.967c0.729,0.283 1.65,0.546 2.442,0.45c0.245,-0.029 0.579,-0.096 0.729,-0.317c0.258,-0.375 0.291,-1.2 0.283,-1.633l-0.029,-1.792l4.904,-0.662l5.142,38.008l-5.109,0.688l-0.287,-1.971c-0.317,-2.175 -1.092,-4.259 -2.092,-6.204c-1.116,-2.167 -2.412,-4.23 -3.904,-6.159c-1.292,-1.675 -2.687,-3.316 -4.233,-4.762l-15.196,-14.213c-3.367,4.509 -7.017,8.825 -11.013,12.779c-3.97,3.93 -8.179,7.642 -12.654,10.984c-3.887,2.896 -7.887,5.671 -12.046,8.162c-3.483,2.092 -6.987,4.15 -10.541,6.121c-2.767,1.533 -5.525,3.142 -8.167,4.888c-1.721,1.141 -3.533,2.554 -4.787,4.216c-0.838,1.113 -1.192,2.325 -1.025,3.713l0.241,1.975l-0.337,0.046c0.762,0.979 1.716,1.85 2.646,2.583c2.3,1.825 4.929,3.392 7.516,4.771l63.584,33.804c0.57,0.308 1.162,0.579 1.783,0.787c0.487,0.163 1.017,0.309 1.529,0.375c0.763,0.096 1.658,0.096 2.308,-0.379c0.684,-0.5 1.096,-1.308 1.346,-2.1l0.509,-1.604l4.8,0.617l-4.563,35.629l-4.675,-0.596l-0.2,-1.542c-0.104,-0.787 -0.35,-1.625 -0.904,-2.22c-0.504,-0.546 -1.196,-0.863 -1.904,-1.063c-0.546,0.071 -1.092,0.146 -1.638,0.242c-0.783,0.141 -1.616,0.096 -2.371,0.254l-75.562,15.842c-0.775,0.162 -1.554,0.408 -2.304,0.654c-0.971,0.316 -1.909,0.737 -2.809,1.216c-0.845,0.45 -1.591,1.025 -2.241,1.734c-0.517,0.558 -0.821,1.212 -0.934,1.966l-0.291,1.95l-5.375,-0.687l4.671,-36.483l4.954,0.633l0.204,1.537c0.167,1.225 0.525,2.559 1.254,3.575c0.6,0.842 1.375,1.471 2.308,1.913c1.088,0.512 2.242,0.821 3.438,0.967c2.533,0.304 5.079,-0.021 7.525,-0.725c2.95,-0.846 5.733,-2.225 8.3,-3.9c2.937,-1.925 5.554,-4.296 7.875,-6.925c2.562,-2.905 4.625,-6.171 6.275,-9.667c1.608,-3.408 2.683,-7.025 3.342,-10.725l-22.513,-11.467c-1.058,-0.541 -2.162,-0.983 -3.292,-1.346c-1.108,-0.358 -2.275,-0.8 -3.429,-0.983c-1.571,-0.246 -3.029,0.138 -4.35,1c-1.4,0.917 -2.012,2.775 -2.321,4.329l-0.366,1.846l-5.279,-0.679l4.233,-33.075l0.721,0.092l-3.625,-26.784l5.116,-0.691l0.496,1.641c0.217,0.713 0.659,1.859 1.354,2.25c0.75,0.421 1.775,0.388 2.596,0.271c1.138,-0.162 2.263,-0.437 3.359,-0.783c1.283,-0.409 2.57,-0.784 3.82,-1.284c7.713,-3.075 14.696,-7.866 21.03,-13.17c6.816,-5.713 13.066,-12.13 18.82,-18.905l-10.55,-10.166l-33.9,4.587c-2.1,0.284 -4.241,0.817 -6.141,1.775c-1.388,0.696 -2.634,1.642 -3.459,2.971c-0.766,1.225 -0.92,2.604 -0.745,4.021l0.245,1.979l-5.391,0.729l-5.138,-38.008l5.059,-0.683l0.533,1.57c0.537,1.588 1.354,3.388 2.6,4.546c1.062,0.996 2.367,1.542 3.8,1.759c2.067,0.308 4.371,0.12 6.433,-0.159l62.359,-8.433c2.95,-0.4 6.566,-1.225 8.92,-3.163c1.917,-1.583 2.625,-3.766 2.671,-6.208l0.029,-1.729l4.846,-0.654l5.138,38.008l-4.938,0.667l-0.421,-1.775c-0.366,-1.538 -1.008,-3.209 -2.208,-4.292c-1.117,-1.012 -2.542,-1.496 -4.017,-1.692c-2.204,-0.291 -4.629,-0.095 -6.825,0.2l-15.537,2.105Zm-834.113,21.67c2.304,0.384 4.679,0.475 7.008,0.567c2.463,0.1 4.929,0.017 7.383,-0.204c4.913,-0.442 9.95,-1.308 14.584,-3.046c3.783,-1.412 7.425,-3.312 10.566,-5.867c2.717,-2.208 5.105,-4.77 6.917,-7.775c1.654,-2.75 2.921,-5.72 3.492,-8.887c0.687,-3.792 0.466,-7.583 -0.413,-11.325c-0.896,-3.804 -2.496,-7.3 -4.766,-10.488c-2.405,-3.37 -5.455,-6.112 -8.95,-8.316c-3.95,-2.496 -8.359,-4.025 -12.938,-4.867c-3.45,-0.638 -6.958,-0.892 -10.467,-0.829c-3.67,0.066 -7.329,0.479 -10.925,1.225c-3.583,0.746 -7.079,1.871 -10.425,3.35c-3.233,1.433 -6.275,3.246 -9.025,5.467c-2.67,2.158 -4.929,4.716 -6.75,7.62c-1.9,3.025 -3.12,6.363 -3.754,9.871c-0.587,3.217 -0.541,6.471 0.246,9.646c0.758,3.063 2.033,5.908 3.846,8.492c1.858,2.662 4.096,5.033 6.629,7.062c2.617,2.092 5.467,3.825 8.504,5.242c2.942,1.371 6.025,2.529 9.238,3.062Zm82.508,-203.062c0.788,-2.113 1.5,-4.263 2.146,-6.421c0.962,-3.221 1.746,-6.492 2.354,-9.796c0.567,-3.096 0.942,-6.242 1.013,-9.392c0.058,-2.55 -0.155,-5.183 -0.855,-7.641c-0.508,-1.763 -1.341,-3.463 -2.808,-4.621c-1.129,-0.888 -2.383,-1.425 -3.825,-1.496c-1.554,-0.071 -3.046,0.229 -4.492,0.796c-1.666,0.654 -3.258,1.512 -4.716,2.554c-1.509,1.083 -2.954,2.258 -4.275,3.558c-1.096,1.075 -2.263,2.23 -3.175,3.467c-1.009,1.363 -1.846,2.808 -2.7,4.271c-0.613,1.054 -1.159,2.233 -1.421,3.429c-0.196,0.883 -0.125,1.721 0.208,2.558c0.434,1.096 1.442,2.067 2.346,2.784l20.2,15.95Zm42.713,-115.871c0.166,-0.288 0.112,-1.067 0.087,-1.288c-0.158,-1.396 -1.183,-2.962 -2.021,-4.046c-0.683,-0.879 -1.641,-1.875 -2.712,-2.266c-0.146,-0.05 -0.788,-0.254 -0.938,-0.138c-0.15,0.113 -0.075,0.942 -0.058,1.092c0.2,1.467 0.854,2.858 1.704,4.058c0.546,0.775 1.217,1.392 2.013,1.9c0.416,0.267 1.021,0.604 1.521,0.663c0.095,0.012 0.27,0.029 0.404,0.025Zm113.687,26.608c0.471,1.075 1,2.113 1.609,3.117c0.641,1.05 1.491,1.9 2.483,2.621c1.071,0.775 2.471,1.045 3.762,1.108c2.063,0.104 4.488,-0.738 6.355,-1.538c1.945,-0.833 3.862,-1.741 5.741,-2.725c1.813,-0.945 3.529,-2.066 5.163,-3.304c1.779,-1.346 3.408,-2.9 4.871,-4.587c2.291,-2.646 3.879,-5.742 4.95,-9.063c1.175,-3.658 1.583,-7.441 1.379,-11.275c-0.229,-4.3 -1.338,-8.446 -3.054,-12.387c-2.417,-5.534 -5.509,-10.742 -9.43,-15.342c-3.487,-4.096 -7.545,-7.587 -12.258,-10.187c-4.383,-2.417 -9.079,-3.8 -14.079,-4.075c-5.3,-0.292 -10.433,0.912 -15.283,2.991c-1.338,0.571 -2.667,1.213 -3.905,1.979c-0.887,0.546 -1.683,1.234 -2.266,2.105c-0.521,0.779 -0.704,1.679 -0.7,2.604c0.008,1.483 0.621,3.191 1.208,4.533l23.454,53.425Zm192.588,-73.183c2.342,0.321 4.658,0.833 6.929,1.487c3.571,1.029 6.954,2.571 10.146,4.471c1.521,0.904 2.967,1.921 4.346,3.025l-9.292,-34.679l-12.129,25.696Zm393.338,458.633c-0.446,2.321 -1.079,4.609 -1.85,6.842c-1.217,3.513 -2.929,6.813 -4.996,9.896c-0.983,1.475 -2.075,2.867 -3.25,4.183l35.121,-7.462l-25.025,-13.459Z" style="fill:#f8fbef;"/></g></g></svg>